<svg xmlns="http://www.w3.org/2000/svg" viewBox="0 0 32 32" fill="none">
  <rect width="32" height="32" rx="6" fill="url(#gradient)"/>
  <path stroke="#ffffff" stroke-linecap="round" stroke-linejoin="round" stroke-width="2" d="M11 7H9a2 2 0 00-2 2v14a2 2 0 002 2h14a2 2 0 002-2V9a2 2 0 00-2-2h-2M11 7a2 2 0 002 2h4a2 2 0 002-2M11 7a2 2 0 012-2h4a2 2 0 012 2" fill="none"/>
  <defs>
    <linearGradient id="gradient" x1="0" y1="0" x2="32" y2="32" gradientUnits="userSpaceOnUse">
      <stop offset="0%" stop-color="#2563eb"/>
      <stop offset="100%" stop-color="#1d4ed8"/>
    </linearGradient>
  </defs>
</svg>
